<svg width="512" height="512" viewBox="0 0 512 512" fill="none" xmlns="http://www.w3.org/2000/svg">
    <rect width="512" height="512" fill="white"/>
    <mask id="mask0_2_141" style="mask-type:alpha" maskUnits="userSpaceOnUse" x="0" y="0" width="512" height="512">
        <rect width="512" height="512" fill="white"/>
    </mask>
    <g mask="url(#mask0_2_141)">
        <rect x="-96.8463" y="-23.4704" width="596.469" height="654.738" transform="rotate(-10 -96.8463 -23.4704)" fill="url(#paint0_linear_2_141)"/>
    </g>
    <path d="M219.293 365H278.921V292.503H299.512L338.12 365H402.895L358.282 283.065C381.661 271.805 395.603 250.463 395.603 220.006C395.603 173.247 362.893 145.364 314.097 145.364H219.293V365ZM278.921 246.173V192.98H299.941C320.853 192.98 333.401 201.131 333.401 220.006C333.401 238.773 320.853 246.173 299.941 246.173H278.921Z" fill="black" fill-opacity="0.2"/>
    <path d="M209.293 365H268.921V292.503H289.512L328.12 365H392.895L348.282 283.065C371.661 271.805 385.603 250.463 385.603 220.006C385.603 173.247 352.893 145.364 304.097 145.364H209.293V365ZM268.921 246.173V192.98H289.941C310.853 192.98 323.401 201.131 323.401 220.006C323.401 238.773 310.853 246.173 289.941 246.173H268.921Z" fill="black" fill-opacity="0.2"/>
    <path d="M199.293 365H258.921V292.503H279.512L318.12 365H382.895L338.282 283.065C361.661 271.805 375.603 250.463 375.603 220.006C375.603 173.247 342.893 145.364 294.097 145.364H199.293V365ZM258.921 246.173V192.98H279.941C300.853 192.98 313.401 201.131 313.401 220.006C313.401 238.773 300.853 246.173 279.941 246.173H258.921Z" fill="black" fill-opacity="0.2"/>
    <path d="M189.293 365H248.921V292.503H269.512L308.12 365H372.895L328.282 283.065C351.661 271.805 365.603 250.463 365.603 220.006C365.603 173.247 332.893 145.364 284.097 145.364H189.293V365ZM248.921 246.173V192.98H269.941C290.853 192.98 303.401 201.131 303.401 220.006C303.401 238.773 290.853 246.173 269.941 246.173H248.921Z" fill="black" fill-opacity="0.2"/>
    <path d="M179.293 365H238.921V292.503H259.512L298.12 365H362.895L318.282 283.065C341.661 271.805 355.603 250.463 355.603 220.006C355.603 173.247 322.893 145.364 274.097 145.364H179.293V365ZM238.921 246.173V192.98H259.941C280.853 192.98 293.401 201.131 293.401 220.006C293.401 238.773 280.853 246.173 259.941 246.173H238.921Z" fill="black" fill-opacity="0.2"/>
    <path d="M169.293 365H228.921V292.503H249.512L288.12 365H352.895L308.282 283.065C331.661 271.805 345.603 250.463 345.603 220.006C345.603 173.247 312.893 145.364 264.097 145.364H169.293V365ZM228.921 246.173V192.98H249.941C270.853 192.98 283.401 201.131 283.401 220.006C283.401 238.773 270.853 246.173 249.941 246.173H228.921Z" fill="black"/>
    <defs>
        <linearGradient id="paint0_linear_2_141" x1="-48.2465" y1="374.971" x2="436.918" y2="377.118" gradientUnits="userSpaceOnUse">
            <stop stop-color="#E22828"/>
            <stop offset="1" stop-color="#FF8C2F"/>
        </linearGradient>
    </defs>
</svg>
